<svg xmlns="http://www.w3.org/2000/svg" width="140" height="84" viewBox="0 0 140 84">
    <g fill="none" fill-rule="evenodd">
        <path fill="#AA0020" d="M0 0H140V84H0z"/>
        <path fill="#FFF" fill-rule="nonzero" d="M123.123 69.218c.596-1.704 2.471-5.353 4.746-5.353.423 0 .7.203.837.499.146.315.122.75-.034 1.124-.794 1.904-3.066 3.317-5.549 3.73m-14.046-3.17c-.082 1.614-2.356 6.673-5.207 6.673-1.245 0-1.303-1.24-1.053-2.332.4-1.747 2.82-6.007 5.045-6.007.914 0 1.258.833 1.215 1.667m-67.156 5.605c-2.12 1.358-4.252 2.182-6.408 2.182-3.25 0-5.075-1.25-5.075-2.836 0-1.124 1.063-2.137 2.96-2.137 2.537 0 5.424 1.319 8.523 2.791m80.956-1.287c1.853-.297 7.731-1.233 8.559-4.173.681-2.42-1.594-3.602-3.917-3.602-4.628 0-9.31 2.866-10.5 7.58-.063.244-.106.497-.129.753-1.437 1.232-2.838 1.9-3.618 1.9-.856 0-.966-.592-.571-1.358l7.37-14.28h-6l-3.935 7.62c-.292-1.064-1.498-2.306-4.149-2.306-5.04 0-7.985 4.182-9.023 7.025-.18.495-.295.977-.35 1.438-1.418 1.207-2.798 1.86-3.57 1.86-.855 0-.966-.592-.571-1.357l2.136-4.138c1.102-2.134.12-4.48-2.833-4.48-2.564 0-4.913 1.383-7.787 3.482l1.61-3.12h-6.194l-1.824 3.538c-1.983 3.842-5.495 6.075-6.923 6.075-.855 0-.98-.602-.57-1.357l4.478-8.255h-6.19l-2.492 4.593c-.93 1.714-3.233 4.253-6.995 4.253-2.542 0-5.156-.655-7.859-1.489 4.294-2.605 8.636-6.218 12.636-10.842C71.61 50.544 76.87 47.06 85.578 47.06c11.242 0 15.44 4.25 15.44 7.759 0 2.698-1.28 3.56-2.334 4.042l.156.912c4.986-.188 7.78-2.643 7.78-5.482 0-4.944-8.495-8.715-21.897-8.715-11.535 0-21.541 4.766-28.284 11.918-3.66 3.879-7.26 8.144-10.866 11.342-3.046-.922-6.21-1.681-9.516-1.681-6.422 0-10.509 1.62-10.509 4.42 0 2.489 4.554 4.03 9.936 4.03 3.046 0 6.496-.75 10.102-2.251 2.84 1.24 5.803 2.252 8.793 2.252 3.928 0 7.22-2.007 9.375-3.865-1.032 2.121.284 3.865 2.656 3.865 2.238 0 5.724-1.31 8.694-4.057l-1.906 3.692h6.195l.547-1.065c1.28-2.49 4.47-8.18 7.605-8.18.917 0 1.122.846.675 1.714l-1.992 3.856c-1.149 2.224.13 4.04 2.568 4.04 2.038 0 5.068-1.09 7.819-3.361.261 1.988 1.762 3.36 3.871 3.36 2.446 0 5.361-2.015 6.366-2.964-.16 1.43.572 2.965 2.657 2.965 1.702 0 4.682-1.115 7.435-3.438.348 1.914 1.97 3.67 5.555 3.67 2.95 0 6.689-1.274 9.11-2.836l-.022-1.11c-2 .96-3.815 1.729-5.865 1.729-2.055 0-3.234-1.447-2.845-3.254M77.178 58.474c.24-1.565-.964-2.831-2.693-2.831s-3.323 1.266-3.565 2.83c-.241 1.567.963 2.833 2.692 2.833 1.728 0 3.324-1.266 3.566-2.832"/>
        <g fill="#FFF">
            <path d="M0.35 8.125L0.35 1.277 1.266 1.277 1.266 7.508 3.41 7.508 3.41 8.125 0.35 8.125z" transform="translate(8.4 7.467)"/>
            <path fill-rule="nonzero" d="M5.07 1.725c-.289 0-.518-.219-.518-.478 0-.268.23-.487.518-.487.278 0 .508.219.508.487 0 .26-.23.478-.508.478zm-.438 6.4V2.76h.876v5.365h-.876z" transform="translate(8.4 7.467)"/>
            <path d="M10.002 8.125V4.273c0-.497-.21-1.045-1.125-1.045-.498 0-.736.07-1.015.19v4.707h-.876V3.04c.478-.23 1.105-.378 1.96-.378 1.494 0 1.932.826 1.932 1.592v3.872h-.876z" transform="translate(8.4 7.467)"/>
            <path fill-rule="nonzero" d="M14.302 8.225c-1.533 0-2.359-1.075-2.359-2.698 0-1.782.946-2.817 2.33-2.817.298 0 .557.04.846.12V.312h.866v7.534c-.359.22-.936.379-1.683.379zm.817-4.907c-.22-.06-.438-.1-.667-.1-1.244 0-1.642 1.075-1.642 2.24 0 1.264.437 2.19 1.533 2.19.358 0 .607-.04.776-.15v-4.18zM17.902 5.776c.1 1.214.667 1.812 1.632 1.812.607 0 1.045-.15 1.324-.309l.23.577c-.33.2-.897.369-1.623.369-1.403 0-2.389-.886-2.389-2.797 0-1.822.896-2.767 2.16-2.767 1.284 0 2.06.836 2.04 2.628l-3.374.487zm1.304-2.548c-.777 0-1.354.627-1.334 2.08l2.568-.388c0-1.214-.468-1.692-1.234-1.692z" transform="translate(8.4 7.467)"/>
            <path d="M30.312 8.125L29.785 3c-.04-.428-.05-.806-.05-.806h-.02s-.07.378-.19.806c0 0-1.413 5.007-1.453 5.126h-.607c-.03-.1-1.433-5.136-1.433-5.136-.11-.407-.189-.796-.189-.796h-.02s-.01.389-.05.796l-.538 5.136h-.786l.816-6.848h.966l1.373 4.947c.13.458.18.776.18.776h.02s.05-.318.18-.766l1.412-4.957h.966l.816 6.848h-.866z" transform="translate(8.4 7.467)"/>
            <path fill-rule="nonzero" d="M34.203 8.225c-1.394 0-2.04-.608-2.04-1.583 0-1.423 1.333-1.841 2.996-2.01v-.329c0-.826-.498-1.065-1.185-1.065-.517 0-.995.19-1.294.339l-.209-.518c.309-.17.906-.398 1.642-.398.996 0 1.872.428 1.872 1.742v3.443c-.409.23-1.035.379-1.782.379zm.956-3.146c-1.354.17-2.16.458-2.16 1.543 0 .777.478 1.095 1.274 1.095.338 0 .667-.06.886-.18V5.08z" transform="translate(8.4 7.467)"/>
            <path d="M39.017 8.175c-.976 0-1.334-.697-1.334-1.354V3.307h-.617V2.76h.617V1.526l.876-.269V2.76h.935v.548h-.935V6.8c0 .428.189.777.676.777.09 0 .17-.02.259-.04v.557c-.1.03-.259.08-.477.08z" transform="translate(8.4 7.467)"/>
            <path fill-rule="nonzero" d="M41.157 5.776c.1 1.214.667 1.812 1.632 1.812.607 0 1.045-.15 1.324-.309l.23.577c-.33.2-.897.369-1.623.369-1.403 0-2.389-.886-2.389-2.797 0-1.822.896-2.767 2.16-2.767 1.284 0 2.06.836 2.04 2.628l-3.374.487zm1.304-2.548c-.777 0-1.354.627-1.334 2.08l2.568-.388c0-1.214-.468-1.692-1.234-1.692z" transform="translate(8.4 7.467)"/>
            <path d="M47.974 3.338c-.438-.13-.936-.09-1.224.099v4.688h-.876V3.049c.528-.27 1.035-.408 2.309-.378l-.21.667z" transform="translate(8.4 7.467)"/>
            <path fill-rule="nonzero" d="M49.864 1.725c-.29 0-.518-.219-.518-.478 0-.268.23-.487.518-.487.278 0 .508.219.508.487 0 .26-.23.478-.508.478zm-.438 6.4V2.76h.876v5.365h-.876zM53.638 8.225c-1.394 0-2.04-.608-2.04-1.583 0-1.423 1.333-1.841 2.995-2.01v-.329c0-.826-.497-1.065-1.184-1.065-.517 0-.995.19-1.294.339l-.21-.518c.31-.17.907-.398 1.643-.398.996 0 1.871.428 1.871 1.742v3.443c-.408.23-1.035.379-1.781.379zm.955-3.146c-1.354.17-2.16.458-2.16 1.543 0 .777.478 1.095 1.274 1.095.339 0 .667-.06.886-.18V5.08z" transform="translate(8.4 7.467)"/>
            <path d="M56.832 8.125L56.832.312 57.708.312 57.708 8.125 56.832 8.125zM64.975 8.125L64.975 4.89 62.355 4.89 62.355 8.125 61.439 8.125 61.439 1.277 62.355 1.277 62.355 4.283 64.975 4.283 64.975 1.277 65.891 1.277 65.891 8.125z" transform="translate(8.4 7.467)"/>
            <path fill-rule="nonzero" d="M69.182 8.225c-1.393 0-2.04-.608-2.04-1.583 0-1.423 1.334-1.841 2.996-2.01v-.329c0-.826-.497-1.065-1.184-1.065-.518 0-.996.19-1.294.339l-.21-.518c.31-.17.906-.398 1.643-.398.995 0 1.871.428 1.871 1.742v3.443c-.408.23-1.035.379-1.782.379zm.956-3.146c-1.354.17-2.16.458-2.16 1.543 0 .777.478 1.095 1.274 1.095.338 0 .667-.06.886-.18V5.08z" transform="translate(8.4 7.467)"/>
            <path d="M75.366 8.125V4.273c0-.497-.209-1.045-1.124-1.045-.498 0-.737.07-1.015.19v4.707h-.876V3.04c.477-.23 1.104-.378 1.96-.378 1.493 0 1.932.826 1.932 1.592v3.872h-.877z" transform="translate(8.4 7.467)"/>
            <path fill-rule="nonzero" d="M79.654 8.225c-1.533 0-2.359-1.075-2.359-2.698 0-1.782.946-2.817 2.33-2.817.298 0 .557.04.846.12V.312h.866v7.534c-.36.22-.936.379-1.683.379zm.817-4.907c-.22-.06-.438-.1-.667-.1-1.244 0-1.642 1.075-1.642 2.24 0 1.264.437 2.19 1.533 2.19.358 0 .607-.04.776-.15v-4.18z" transform="translate(8.4 7.467)"/>
            <path d="M82.84 8.125L82.84 0.312 83.716 0.312 83.716 8.125 82.84 8.125z" transform="translate(8.4 7.467)"/>
            <path fill-rule="nonzero" d="M85.684 1.725c-.29 0-.518-.219-.518-.478 0-.268.23-.487.518-.487.278 0 .507.219.507.487 0 .26-.229.478-.507.478zm-.438 6.4V2.76h.875v5.365h-.875z" transform="translate(8.4 7.467)"/>
            <path d="M90.628 8.125V4.273c0-.497-.21-1.045-1.125-1.045-.498 0-.736.07-1.015.19v4.707h-.876V3.04c.478-.23 1.105-.378 1.96-.378 1.494 0 1.932.826 1.932 1.592v3.872h-.876z" transform="translate(8.4 7.467)"/>
            <path fill-rule="nonzero" d="M94.54 10.374c-.706 0-1.304-.149-1.662-.368l.269-.587c.298.17.766.318 1.244.318.985 0 1.363-.597 1.363-1.403v-.378c-.239.14-.607.229-1.074.229-1.284 0-2.11-1.015-2.11-2.648 0-1.701.825-2.876 2.438-2.876.746 0 1.284.18 1.592.378v5.195c0 1.354-.776 2.14-2.06 2.14zm1.214-7.036c-.199-.11-.457-.15-.766-.15-1.085 0-1.552.906-1.552 2.32 0 1.383.448 2.159 1.473 2.159.338 0 .637-.09.846-.219v-4.11z" transform="translate(8.4 7.467)"/>
        </g>
    </g>
</svg>
